<svg width="283" height="45" viewBox="0 0 283 45" fill="none" xmlns="http://www.w3.org/2000/svg">
<path d="M8.05114 35H0.142046L12.1932 0.0909081H21.7045L33.7386 35H25.8295L17.0852 8.06818H16.8125L8.05114 35ZM7.55682 21.2784H26.2386V27.0398H7.55682V21.2784ZM42.6653 0.0909081V35H35.404V0.0909081H42.6653ZM46.2185 35V0.0909081H53.4798V13.2159H53.7014C54.0196 12.5114 54.4798 11.7955 55.0821 11.0682C55.6957 10.3295 56.4912 9.71591 57.4685 9.22727C58.4571 8.72727 59.6844 8.47727 61.1503 8.47727C63.0594 8.47727 64.8207 8.97727 66.4344 9.97727C68.048 10.9659 69.3378 12.4602 70.3037 14.4602C71.2696 16.4489 71.7526 18.9432 71.7526 21.9432C71.7526 24.8636 71.281 27.3295 70.3378 29.3409C69.406 31.3409 68.1332 32.858 66.5196 33.892C64.9173 34.9148 63.1219 35.4261 61.1332 35.4261C59.7241 35.4261 58.5253 35.1932 57.5366 34.7273C56.5594 34.2614 55.7582 33.6761 55.1332 32.9716C54.5082 32.2557 54.031 31.5341 53.7014 30.8068H53.3776V35H46.2185ZM53.3264 21.9091C53.3264 23.4659 53.5423 24.8239 53.9741 25.983C54.406 27.142 55.031 28.0455 55.8491 28.6932C56.6673 29.3295 57.6616 29.6477 58.8321 29.6477C60.0139 29.6477 61.0139 29.3239 61.8321 28.6761C62.6503 28.017 63.2696 27.108 63.6901 25.9489C64.1219 24.7784 64.3378 23.4318 64.3378 21.9091C64.3378 20.3977 64.1276 19.0682 63.7071 17.9205C63.2866 16.7727 62.6673 15.875 61.8491 15.2273C61.031 14.5795 60.0253 14.2557 58.8321 14.2557C57.6503 14.2557 56.6503 14.5682 55.8321 15.1932C55.0253 15.8182 54.406 16.7045 53.9741 17.8523C53.5423 19 53.3264 20.3523 53.3264 21.9091ZM86.1295 35.5114C83.4364 35.5114 81.1182 34.9659 79.175 33.875C77.2432 32.7727 75.7545 31.2159 74.7091 29.2045C73.6636 27.1818 73.1409 24.7898 73.1409 22.0284C73.1409 19.3352 73.6636 16.9716 74.7091 14.9375C75.7545 12.9034 77.2261 11.3182 79.1239 10.1818C81.033 9.04545 83.2716 8.47727 85.8398 8.47727C87.567 8.47727 89.175 8.75568 90.6636 9.3125C92.1636 9.85795 93.4705 10.6818 94.5841 11.7841C95.7091 12.8864 96.5841 14.2727 97.2091 15.9432C97.8341 17.6023 98.1466 19.5455 98.1466 21.7727V23.767H76.0386V19.267H91.3114C91.3114 18.2216 91.0841 17.2955 90.6295 16.4886C90.175 15.6818 89.5443 15.0511 88.7375 14.5966C87.942 14.1307 87.0159 13.8977 85.9591 13.8977C84.8568 13.8977 83.8795 14.1534 83.0273 14.6648C82.1864 15.1648 81.5273 15.8409 81.05 16.6932C80.5727 17.5341 80.3284 18.4716 80.317 19.5057V23.7841C80.317 25.0795 80.5557 26.1989 81.033 27.142C81.5216 28.0852 82.2091 28.8125 83.0955 29.3239C83.9818 29.8352 85.033 30.0909 86.2489 30.0909C87.0557 30.0909 87.7943 29.9773 88.4648 29.75C89.1352 29.5227 89.7091 29.1818 90.1864 28.7273C90.6636 28.2727 91.0273 27.7159 91.2773 27.0568L97.9932 27.5C97.6523 29.1136 96.9534 30.5227 95.8966 31.7273C94.8511 32.9205 93.4989 33.8523 91.8398 34.5227C90.192 35.1818 88.2886 35.5114 86.1295 35.5114ZM100.485 35V8.81818H107.525V13.3864H107.798C108.275 11.7614 109.076 10.5341 110.201 9.70455C111.326 8.86364 112.622 8.44318 114.088 8.44318C114.451 8.44318 114.843 8.46591 115.264 8.51136C115.684 8.55682 116.053 8.61932 116.372 8.69886V15.142C116.031 15.0398 115.559 14.9489 114.957 14.8693C114.355 14.7898 113.803 14.75 113.303 14.75C112.235 14.75 111.281 14.983 110.44 15.4489C109.61 15.9034 108.951 16.5398 108.463 17.358C107.985 18.1761 107.747 19.1193 107.747 20.1875V35H100.485ZM132.964 8.81818V14.2727H117.197V8.81818H132.964ZM120.777 2.54545H128.038V26.9545C128.038 27.625 128.141 28.1477 128.345 28.5227C128.55 28.8864 128.834 29.142 129.197 29.2898C129.572 29.4375 130.004 29.5114 130.493 29.5114C130.834 29.5114 131.175 29.483 131.516 29.4261C131.857 29.358 132.118 29.3068 132.3 29.2727L133.442 34.6761C133.078 34.7898 132.567 34.9205 131.908 35.0682C131.249 35.2273 130.447 35.3239 129.504 35.358C127.754 35.4261 126.22 35.1932 124.902 34.6591C123.595 34.125 122.578 33.2955 121.851 32.1705C121.124 31.0455 120.766 29.625 120.777 27.9091V2.54545ZM144.14 35V0.0909081H151.521V14.4943H166.504V0.0909081H173.868V35H166.504V20.5795H151.521V35H144.14ZM194.206 23.8523V8.81818H201.468V35H194.496V30.2443H194.223C193.632 31.7784 192.649 33.0114 191.274 33.9432C189.911 34.875 188.246 35.3409 186.28 35.3409C184.53 35.3409 182.99 34.9432 181.661 34.1477C180.331 33.3523 179.291 32.2216 178.541 30.7557C177.803 29.2898 177.428 27.5341 177.416 25.4886V8.81818H184.678V24.1932C184.689 25.7386 185.104 26.9602 185.922 27.858C186.74 28.7557 187.837 29.2045 189.212 29.2045C190.087 29.2045 190.905 29.0057 191.666 28.608C192.428 28.1989 193.041 27.5966 193.507 26.8011C193.985 26.0057 194.218 25.0227 194.206 23.8523ZM209.359 44.8182C208.438 44.8182 207.575 44.7443 206.768 44.5966C205.972 44.4602 205.313 44.2841 204.791 44.0682L206.427 38.6477C207.279 38.9091 208.046 39.0511 208.728 39.0739C209.421 39.0966 210.018 38.9375 210.518 38.5966C211.029 38.2557 211.444 37.6761 211.762 36.858L212.188 35.75L202.796 8.81818H210.433L215.853 28.0455H216.126L221.597 8.81818H229.285L219.109 37.8295C218.62 39.2386 217.955 40.4659 217.114 41.5114C216.285 42.5682 215.234 43.3807 213.961 43.9489C212.688 44.5284 211.154 44.8182 209.359 44.8182ZM237.862 19.8636V35H230.601V8.81818H237.521V13.4375H237.828C238.408 11.9148 239.379 10.7102 240.743 9.82386C242.107 8.92614 243.76 8.47727 245.703 8.47727C247.521 8.47727 249.107 8.875 250.459 9.67045C251.811 10.4659 252.862 11.6023 253.612 13.0795C254.362 14.5455 254.737 16.2955 254.737 18.3295V35H247.476V19.625C247.487 18.0227 247.078 16.7727 246.249 15.875C245.419 14.9659 244.277 14.5114 242.822 14.5114C241.845 14.5114 240.982 14.7216 240.232 15.142C239.493 15.5625 238.913 16.1761 238.493 16.983C238.084 17.7784 237.874 18.7386 237.862 19.8636ZM265.322 19.8636V35H258.06V0.0909081H265.117V13.4375H265.424C266.015 11.892 266.969 10.6818 268.288 9.80682C269.606 8.92045 271.259 8.47727 273.248 8.47727C275.066 8.47727 276.651 8.875 278.003 9.67045C279.367 10.4545 280.424 11.5852 281.174 13.0625C281.935 14.5284 282.31 16.2841 282.299 18.3295V35H275.038V19.625C275.049 18.0114 274.64 16.7557 273.81 15.858C272.992 14.9602 271.844 14.5114 270.367 14.5114C269.378 14.5114 268.503 14.7216 267.742 15.142C266.992 15.5625 266.401 16.1761 265.969 16.983C265.549 17.7784 265.333 18.7386 265.322 19.8636Z" fill="black"/>
</svg>
